<svg width="382" height="206" xmlns="http://www.w3.org/2000/svg" xmlns:xlink="http://www.w3.org/1999/xlink" xml:space="preserve" overflow="hidden"><g transform="translate(-947 -1330)"><path d="M117.234 0C117.234 0 114.945 0 112.126 0L5.34586 0C2.52335 0 0.234169 0 0.234169 0 0.234169 0 2.52335 0 5.34586 0L112.126 0C114.945 0 117.234 0 117.234 0" stroke="#00174C" stroke-width="11.4583" stroke-linecap="round" stroke-linejoin="round" stroke-miterlimit="10" fill="none" fill-rule="evenodd" transform="matrix(1 0 0 -1 1204.5 1480.5)"/><path d="M11.5677 0 11.5534 0 11.5534 0C10.3571 0 8.73101 0 6.9224 0 3.26323 0 0.30027 0 0.30027 0 0.30027 0 1.10872 0 2.37971 0L2.35175 0 58.0481 0 67.2501 0 11.6285 0C11.6097 0 11.5861 0 11.5677 0" stroke="#00174C" stroke-width="11.4583" stroke-linecap="round" stroke-linejoin="round" stroke-miterlimit="10" fill="none" fill-rule="evenodd" transform="matrix(0.707107 0.707107 0.707107 -0.707107 1274.99 1430.09)"/><path d="M0.0543645 0 168.055 0 168.055 0 0.0543645 0Z" stroke="#00174C" stroke-width="11.4583" stroke-linecap="round" stroke-linejoin="round" stroke-miterlimit="10" fill="none" fill-rule="evenodd" transform="matrix(1 0 0 -1 952.5 1481.5)"/><path d="M72.3182 0.0407117C90.17-0.0655738 108.097 6.37961 122.183 19.5186 151.465 46.8228 153.068 92.7011 125.759 121.983 98.4507 151.268 52.576 152.871 23.2901 125.563-0.683092 103.203-6.10214 68.4043 7.7039 40.4488" stroke="#00174C" stroke-width="11.4583" stroke-linecap="round" stroke-miterlimit="8" fill="none" fill-rule="evenodd" transform="matrix(1 0 0 -1 1051.5 1481.5)"/><path d="M11.5677 0 11.5534 0 11.5534 0C10.3571 0 8.73101 0 6.9224 0 3.26323 0 0.30027 0 0.30027 0 0.30027 0 1.10872 0 2.37971 0L2.35175 0 58.0481 0 67.2501 0 11.6285 0C11.6097 0 11.5861 0 11.5677 0" stroke="#00174C" stroke-width="11.4583" stroke-linecap="round" stroke-linejoin="round" stroke-miterlimit="10" fill="none" fill-rule="evenodd" transform="matrix(0.707107 -0.707107 -0.707107 -0.707107 1275.15 1529.65)"/></g></svg>